<svg version="1.1" 
  xmlns="http://www.w3.org/2000/svg" 
  xmlns:xlink="http://www.w3.org/1999/xlink" viewBox="0 0 172 172">
  <g transform="translate(-25.8,-25.8) scale(1.3,1.3)">
    <g fill="none" fill-rule="nonzero" stroke="none" stroke-width="1" stroke-linecap="butt" stroke-linejoin="miter" stroke-miterlimit="10" stroke-dasharray="" stroke-dashoffset="0" font-family="none" font-weight="none" font-size="none" text-anchor="none" style="mix-blend-mode: normal">
      <path d="M0,172v-172h172v172z" fill="none"></path>
      <g fill="#868e96">
        <path d="M21.5,35.83333v100.33333c0,7.91917 6.41417,14.33333 14.33333,14.33333h100.33333c7.91917,0 14.33333,-6.41417 14.33333,-14.33333v-100.33333c0,-7.91917 -6.41417,-14.33333 -14.33333,-14.33333h-100.33333c-7.91917,0 -14.33333,6.41417 -14.33333,14.33333zM97.93967,89.23217h-15.179v46.9345h-12.2335v-46.9345h-14.86367v-10.39883h42.27617zM100.319,133.48633v-12.54883c0,0 6.85133,5.16717 15.07867,5.16717c8.22733,0 7.90483,-5.375 7.90483,-6.11317c0,-7.8045 -23.29883,-7.8045 -23.29883,-25.0905c0,-23.51383 33.9485,-14.233 33.9485,-14.233l-0.42283,11.17283c0,0 -5.69033,-3.79833 -12.126,-3.79833c-6.4285,0 -8.7505,3.06017 -8.7505,6.32817c0,8.43517 23.51383,7.5895 23.51383,24.56733c0,26.144 -35.84767,14.54833 -35.84767,14.54833z"></path>
      </g>
      <path d="" fill="none"></path>
    </g>
  </g>
</svg>
